<svg width="32" height="32" viewBox="0 0 32 32" fill="none" xmlns="http://www.w3.org/2000/svg">
<path d="M14.5866 5.96717C15.358 4.64264 17.2715 4.64264 18.043 5.96718L20.3972 10.009C20.6798 10.4942 21.1533 10.8383 21.7021 10.9571L26.2736 11.947C27.7717 12.2714 28.363 14.0913 27.3417 15.2343L24.2252 18.7222C23.851 19.1409 23.6701 19.6976 23.7267 20.2563L24.1979 24.9099C24.3523 26.4349 22.8042 27.5597 21.4016 26.9416L17.1213 25.0554C16.6075 24.829 16.0221 24.829 15.5083 25.0554L11.228 26.9416C9.82535 27.5597 8.27729 26.4349 8.4317 24.9099L8.90288 20.2563C8.95944 19.6976 8.77856 19.1409 8.40443 18.7222L5.2879 15.2343C4.26659 14.0913 4.8579 12.2714 6.356 11.947L10.9275 10.9571C11.4763 10.8383 11.9498 10.4942 12.2324 10.009L14.5866 5.96717Z" fill="#B4A245"/>
</svg>
