<svg width="176" height="32" viewBox="0 0 176 32" fill="none" xmlns="http://www.w3.org/2000/svg">
<path d="M14.5866 5.96717C15.358 4.64264 17.2715 4.64264 18.043 5.96718L20.3972 10.009C20.6798 10.4942 21.1533 10.8383 21.7021 10.9571L26.2736 11.947C27.7717 12.2714 28.363 14.0913 27.3417 15.2343L24.2252 18.7222C23.851 19.1409 23.6701 19.6976 23.7267 20.2563L24.1979 24.9099C24.3523 26.4349 22.8042 27.5597 21.4016 26.9416L17.1213 25.0554C16.6075 24.829 16.0221 24.829 15.5083 25.0554L11.228 26.9416C9.82535 27.5597 8.27729 26.4349 8.4317 24.9099L8.90288 20.2563C8.95944 19.6976 8.77856 19.1409 8.40443 18.7222L5.2879 15.2343C4.26659 14.0913 4.8579 12.2714 6.356 11.947L10.9275 10.9571C11.4763 10.8383 11.9498 10.4942 12.2324 10.009L14.5866 5.96717Z" fill="#B4A245"/>
<path d="M50.5866 5.96717C51.358 4.64264 53.2715 4.64264 54.043 5.96718L56.3972 10.009C56.6798 10.4942 57.1533 10.8383 57.7021 10.9571L62.2736 11.947C63.7717 12.2714 64.363 14.0913 63.3417 15.2343L60.2252 18.7222C59.851 19.1409 59.6701 19.6976 59.7267 20.2563L60.1979 24.9099C60.3523 26.4349 58.8042 27.5597 57.4016 26.9416L53.1213 25.0554C52.6075 24.829 52.0221 24.829 51.5083 25.0554L47.228 26.9416C45.8253 27.5597 44.2773 26.4349 44.4317 24.9099L44.9029 20.2563C44.9594 19.6976 44.7786 19.1409 44.4044 18.7222L41.2879 15.2343C40.2666 14.0913 40.8579 12.2714 42.356 11.947L46.9275 10.9571C47.4763 10.8383 47.9498 10.4942 48.2324 10.009L50.5866 5.96717Z" fill="#B4A245"/>
<path d="M86.5866 5.96717C87.358 4.64264 89.2715 4.64264 90.043 5.96718L92.3972 10.009C92.6798 10.4942 93.1533 10.8383 93.7021 10.9571L98.2736 11.947C99.7717 12.2714 100.363 14.0913 99.3417 15.2343L96.2252 18.7222C95.851 19.1409 95.6701 19.6976 95.7267 20.2563L96.1979 24.9099C96.3523 26.4349 94.8042 27.5597 93.4016 26.9416L89.1213 25.0554C88.6075 24.829 88.0221 24.829 87.5083 25.0554L83.228 26.9416C81.8253 27.5597 80.2773 26.4349 80.4317 24.9099L80.9029 20.2563C80.9594 19.6976 80.7786 19.1409 80.4044 18.7222L77.2879 15.2343C76.2666 14.0913 76.8579 12.2714 78.356 11.947L82.9275 10.9571C83.4763 10.8383 83.9498 10.4942 84.2324 10.009L86.5866 5.96717Z" fill="#B4A245"/>
<path d="M122.587 5.96717C123.358 4.64264 125.272 4.64264 126.043 5.96718L128.397 10.009C128.68 10.4942 129.153 10.8383 129.702 10.9571L134.274 11.947C135.772 12.2714 136.363 14.0913 135.342 15.2343L132.225 18.7222C131.851 19.1409 131.67 19.6976 131.727 20.2563L132.198 24.9099C132.352 26.4349 130.804 27.5597 129.402 26.9416L125.121 25.0554C124.607 24.829 124.022 24.829 123.508 25.0554L119.228 26.9416C117.825 27.5597 116.277 26.4349 116.432 24.9099L116.903 20.2563C116.959 19.6976 116.779 19.1409 116.404 18.7222L113.288 15.2343C112.267 14.0913 112.858 12.2714 114.356 11.947L118.927 10.9571C119.476 10.8383 119.95 10.4942 120.232 10.009L122.587 5.96717Z" fill="#B4A245"/>
<path d="M158.587 5.96717C159.358 4.64264 161.272 4.64264 162.043 5.96718L164.397 10.009C164.68 10.4942 165.153 10.8383 165.702 10.9571L170.274 11.947C171.772 12.2714 172.363 14.0913 171.342 15.2343L168.225 18.7222C167.851 19.1409 167.67 19.6976 167.727 20.2563L168.198 24.9099C168.352 26.4349 166.804 27.5597 165.402 26.9416L161.121 25.0554C160.607 24.829 160.022 24.829 159.508 25.0554L155.228 26.9416C153.825 27.5597 152.277 26.4349 152.432 24.9099L152.903 20.2563C152.959 19.6976 152.779 19.1409 152.404 18.7222L149.288 15.2343C148.267 14.0913 148.858 12.2714 150.356 11.947L154.927 10.9571C155.476 10.8383 155.95 10.4942 156.232 10.009L158.587 5.96717Z" fill="#B4A245"/>
</svg>
